<?xml version="1.0" encoding="UTF-8" standalone="no"?>
<svg
   width="900px"
   height="900px"
   viewBox="0 0 900 900"
   version="1.1"
   xml:space="preserve"
   id="SVGRoot"
   inkscape:version="1.4.3 (0d15f75042, 2025-12-25)"
   sodipodi:docname="icon.svg"
   inkscape:export-filename="icon.png"
   inkscape:export-xdpi="96"
   inkscape:export-ydpi="96"
   xmlns:inkscape="http://www.inkscape.org/namespaces/inkscape"
   xmlns:sodipodi="http://sodipodi.sourceforge.net/DTD/sodipodi-0.dtd"
   xmlns:xlink="http://www.w3.org/1999/xlink"
   xmlns="http://www.w3.org/2000/svg"
   xmlns:svg="http://www.w3.org/2000/svg"><defs
   id="defs3"><linearGradient
     id="linearGradient13"
     inkscape:collect="always"><stop
       style="stop-color:#00ff00;stop-opacity:0;"
       offset="0"
       id="stop13" /><stop
       style="stop-color:#006839;stop-opacity:0.27990216;"
       offset="1"
       id="stop14" /></linearGradient><linearGradient
     id="linearGradient11"
     inkscape:collect="always"><stop
       style="stop-color:#0000ff;stop-opacity:1;"
       offset="0"
       id="stop11" /><stop
       style="stop-color:#000000;stop-opacity:0;"
       offset="1"
       id="stop12" /></linearGradient><linearGradient
     id="linearGradient9"
     inkscape:collect="always"><stop
       style="stop-color:#ff0000;stop-opacity:0;"
       offset="0"
       id="stop9" /><stop
       style="stop-color:#ff0000;stop-opacity:1;"
       offset="1"
       id="stop10" /></linearGradient><linearGradient
     inkscape:collect="always"
     xlink:href="#linearGradient9"
     id="linearGradient10"
     x1="232.22238"
     y1="446.32749"
     x2="854.44504"
     y2="446.32749"
     gradientUnits="userSpaceOnUse" /><linearGradient
     inkscape:collect="always"
     xlink:href="#linearGradient11"
     id="linearGradient12"
     x1="54.445036"
     y1="446.32749"
     x2="676.6677"
     y2="446.32749"
     gradientUnits="userSpaceOnUse" /><radialGradient
     inkscape:collect="always"
     xlink:href="#linearGradient13"
     id="radialGradient14"
     cx="454.44504"
     cy="446.32748"
     fx="454.44504"
     fy="446.32748"
     r="400"
     gradientUnits="userSpaceOnUse" /></defs>
<sodipodi:namedview
   pagecolor="#a9a9a9"
   bordercolor="#292929"
   borderopacity="1"
   inkscape:showpageshadow="2"
   inkscape:pageopacity="0.0"
   inkscape:pagecheckerboard="0"
   inkscape:deskcolor="#232323"
   id="namedview1"
   inkscape:zoom="1.4666667"
   inkscape:cx="449.65909"
   inkscape:cy="450"
   inkscape:window-width="3840"
   inkscape:window-height="1531"
   inkscape:window-x="0"
   inkscape:window-y="0"
   inkscape:window-maximized="1"
   inkscape:current-layer="SVGRoot" />
<style
   type="text/css"
   id="style1">
g.prefab path {
  vector-effect:non-scaling-stroke;
  -inkscape-stroke:hairline;
  fill: none;
  fill-opacity: 1;
  stroke-opacity: 1;
  stroke: #00349c;
}
</style>
<g
   inkscape:label="Double Vision"
   style="fill: white; stroke-width: 2; stroke: black;"
   class="prefab"
   id="g3">
  <path
   d="M 854.44504,46.327501 H 54.445038 V 135.21639 H 854.44504 Z m 0,177.777779 H 54.445038 v 88.88889 H 854.44504 Z m 0,177.77778 H 54.445038 v 88.8889 H 854.44504 Z m 0,177.77778 H 54.445038 v 88.88892 H 854.44504 Z m 0,177.77775 H 54.445038 v 88.8889 H 854.44504 Z M 54.445038,46.3275 V 846.32749 H 143.33393 V 46.3275 Z m 177.777792,0 v 799.99999 h 88.88888 V 46.3275 Z m 177.77777,0 v 799.99999 h 88.88889 V 46.3275 Z m 177.77778,0 v 799.99999 h 88.88889 V 46.3275 Z m 177.77777,0 v 799.99999 h 88.88889 V 46.3275 Z"
   id="path1"
   style="fill:url(#radialGradient14);fill-rule:evenodd" />
  <path
   d="M 365.55637,135.21617 A 311.11111,311.11111 0 0 0 54.445036,446.32749 311.11111,311.11111 0 0 0 365.55637,757.43882 311.11111,311.11111 0 0 0 676.6677,446.32749 311.11111,311.11111 0 0 0 365.55637,135.21617 Z m 0,88.88867 A 222.22223,222.22223 0 0 1 587.77902,446.32749 222.22223,222.22223 0 0 1 365.55637,668.55015 222.22223,222.22223 0 0 1 143.33371,446.32749 222.22223,222.22223 0 0 1 365.55637,224.10484 Z m 0,88.88867 A 133.33334,133.33333 0 0 0 232.22238,446.32749 133.33334,133.33333 0 0 0 365.55637,579.66148 133.33334,133.33333 0 0 0 498.89035,446.32749 133.33334,133.33333 0 0 0 365.55637,312.99351 Z m 0,88.88867 a 44.444447,44.444447 0 0 1 44.44336,44.44531 44.444447,44.444447 0 0 1 -44.44336,44.44532 44.444447,44.444447 0 0 1 -44.44531,-44.44532 44.444447,44.444447 0 0 1 44.44531,-44.44531 z"
   id="path2"
   style="fill:url(#linearGradient12)" />
  <path
   d="M 543.33371,135.21617 A 311.11111,311.11111 0 0 0 232.22238,446.32749 311.11111,311.11111 0 0 0 543.33371,757.43882 311.11111,311.11111 0 0 0 854.44504,446.32749 311.11111,311.11111 0 0 0 543.33371,135.21617 Z m 0,88.88867 A 222.22224,222.22223 0 0 1 765.55637,446.32749 222.22224,222.22223 0 0 1 543.33371,668.55015 222.22224,222.22223 0 0 1 321.11106,446.32749 222.22224,222.22223 0 0 1 543.33371,224.10484 Z m 0,88.88867 A 133.33336,133.33333 0 0 0 409.99973,446.32749 133.33336,133.33333 0 0 0 543.33371,579.66148 133.33336,133.33333 0 0 0 676.6677,446.32749 133.33336,133.33333 0 0 0 543.33371,312.99351 Z m 0,88.88867 a 44.444447,44.444447 0 0 1 44.44531,44.44531 44.444447,44.444447 0 0 1 -44.44531,44.44532 44.444447,44.444447 0 0 1 -44.44336,-44.44532 44.444447,44.444447 0 0 1 44.44336,-44.44531 z"
   id="path3"
   style="fill:url(#linearGradient10);fill-opacity:1;fill-rule:nonzero" />
</g>
<path
   d="M 208.45508,135 142.5,135.68164 143.18164,757.5 233.86328,756.13672 232.5,488.86328 l 178.63672,269.31836 90,-2.72656 -213.41016,-313.63672 c 0,0 121.08601,-4.89479 118.63672,-170.45508 C 404.32344,133.47913 208.45508,135 208.45508,135 Z m 104.01136,90.38104 c 53.01889,23.17348 46.27135,117.00273 19.57884,139.39187 -39.20745,32.8864 -101.5902,11.77201 -101.5902,11.77201 V 218.86328 c 0,0 63.77441,-1.45324 82.01136,6.51776 z"
   style="mix-blend-mode:saturation;fill-rule:nonzero"
   id="path7"
   sodipodi:nodetypes="ccccccccscssccs" /><path
   d="m 540,223.63672 c -67.5,-1.36363 -129.54492,44.31836 -129.54492,44.31836 l -0.68164,98.86328 2.04492,48.4082 c 0,0 263.46502,-10.24597 263.86328,32.04688 0.4171,44.29367 -15.71492,84.04404 -70.9082,115.9082 -66.13637,38.18181 -128.86524,-1.36328 -128.86524,-1.36328 l -42.27148,77.72656 c 0,0 112.49928,73.63618 242.72656,-14.31836 C 818.08902,529.50604 766.36311,374.31854 722.04492,313.63672 677.72674,252.95491 607.5,225.00036 540,223.63672 Z m -15.20472,54.80096 c 18.39683,-0.61932 55.87276,-0.43671 79.29634,12.01633 53.86365,28.63637 44.99893,92.7271 44.99893,92.7271 0,0 -51.13619,-15 -108.40891,-12.95455 -17.76831,0.63458 -86.63672,0 -86.63672,0 l -0.68164,-68.18164 c 0,0 40.77062,-22.57505 71.432,-23.60724 z"
   style="display:inline;mix-blend-mode:saturation;fill-rule:nonzero"
   id="path9"
   sodipodi:nodetypes="scccssccssssscsccs" /></svg>
